<svg id="Layer_1" data-name="Layer 1" xmlns="http://www.w3.org/2000/svg" xmlns:xlink="http://www.w3.org/1999/xlink" viewBox="0 0 113.2 153.5"><defs><linearGradient id="linear-gradient" x1="-344.85" y1="-315.89" x2="-343.85" y2="-315.89" gradientTransform="translate(39045.54 38823.99) scale(113.22 122.71)" gradientUnits="userSpaceOnUse"><stop offset="0" stop-color="#dfbd69"/><stop offset="1" stop-color="#926f34"/></linearGradient><linearGradient id="linear-gradient-2" x1="-344.71" y1="-289.89" x2="-343.71" y2="-289.89" gradientTransform="translate(37766.42 6452.62) scale(109.56 21.77)" xlink:href="#linear-gradient"/></defs><path d="M0,45V1.6C0-.1-.11.1,1.59.1h8a45.47,45.47,0,0,1,29.8,11.1A46.6,46.6,0,0,1,55.49,39a45.41,45.41,0,0,1,.7,8.2V86.7a17.72,17.72,0,0,0,11.7,16.7,21.36,21.36,0,0,0,3.4.9,7.94,7.94,0,0,0,2.2-.1,25.49,25.49,0,0,0,21-21c.3-2,.7-4,1.1-6,.2-1,.2-1,1.2-1H112c.9,0,1.1.1,1.1.9a77.89,77.89,0,0,1-.5,12.8,39.29,39.29,0,0,1-32.3,32.4,32,32,0,0,1-8.2.4c-1-.1-2,.1-3,.1-11.1,0-22.1.1-33.2,0A36.05,36.05,0,0,1,1,95.8a34.89,34.89,0,0,1-1.1-9.1C0,72.7,0,58.9,0,45Zm18.2,9.3V86.8A17.67,17.67,0,0,0,31.69,104c3.4.8,6.9.4,10.3.5q.6,0,.3-.6c-.1-.1-.1-.2-.2-.4a36,36,0,0,1-4.2-17.6V47.1a18.84,18.84,0,0,0-.2-3.4c-1.6-11.3-7.7-19.1-18.2-23.6-1.4-.6-1.4-.5-1.4.9.1,11.2.1,22.2.1,33.3Z" fill="url(#linear-gradient)"/><path d="M25.69,153c-3-.1-6-2.2-7.8-6a11.45,11.45,0,0,1,2.6-13.2,9.46,9.46,0,0,1,13,.1,11.46,11.46,0,0,1,1,15.6c-1.9,2.3-4.4,3.6-8.7,3.6Zm-2.6-16.7a7.91,7.91,0,0,0-.4,11.2c.1.1.2.3.4.4a5.92,5.92,0,0,0,7.7.2,7.65,7.65,0,0,0,2.7-6.2,7.18,7.18,0,0,0-2.4-5.4A5.87,5.87,0,0,0,23.09,136.3Zm-8.3,16.4h-.7l-10.7-.2H3c-1,0-1.1-.1-1.1-1.1,0-1.4,0-2.8.1-4.2,0-1.7.1-3.4.2-4.9-.1-3-.2-5.9-.3-8.8-.1-1.8-.1-1.8,1.6-1.8h1.7c.6,0,.8.2.8.8,0,1.5-.1,3-.1,4.5,0,3.7-.1,7.4-.1,11,0,1.1.1,1.2,1.3,1.2,2.6-.1,5.3-.2,7.9-.4.7,0,.9,0,.9.8s-.1,1.4-.1,2.2a.79.79,0,0,1-.8.8c-.1.1-.1.1-.2.1Zm37.3,0c-.8,0-1.6-.1-2.4-.1H41c-1.5,0-1.6,0-1.5-1.5.1-3,.2-5.9.2-8.8l-.3-9v-.8a.56.56,0,0,1,.5-.6h3c.5,0,.6.4.6.8,0,1.5-.1,3-.1,4.5,0,3.6-.1,7.2-.1,10.8v.5c.1.8.2.9,1,.9,1.8,0,3.6,0,5.4-.1a24.77,24.77,0,0,0,2.7-.3c.7-.1.9,0,.9.8a12.75,12.75,0,0,1-.1,1.9c0,.8-.2,1-1.1,1Zm9.1-.2c-.8,0-.9-.1-.9-.9,0-1.1.1-2.2.2-3.3a3.29,3.29,0,0,0-.8-2.5c-1.7-2.2-3.2-4.4-4.9-6.6a3.14,3.14,0,0,1-.7-2.1c0-1.4-.1-2.9,0-4.3,0-.8.1-.9.9-.9h2.1c.9,0,1,.1,1,1,0,1.1-.1,2.2-.1,3.4a3.07,3.07,0,0,0,.6,2.1c1.2,1.4,2.3,2.9,3.5,4.3.4.5.5.5,1,0,1.2-1.5,2.3-3,3.4-4.5a2.62,2.62,0,0,0,.5-1.9c-.1-1.1-.2-2.2-.2-3.3,0-.9.1-1,1-1H70c.6,0,.9.2.9.8v2.3a6.12,6.12,0,0,1-1.3,5.2c-1.4,1.9-2.8,3.8-4.3,5.7a3.29,3.29,0,0,0-.8,2.5c.1,1.1.1,2.2.1,3.4,0,.8-.1.9-.9,1h-1.2a1.79,1.79,0,0,0-1.3-.4Zm10.9,0c-.6,0-.7-.2-.5-.8a18,18,0,0,1,.8-2.1c2.2-5.8,4.4-11.5,6.7-17.3.4-.9.4-.9,1.4-.9a7.52,7.52,0,0,0,1.5,0c1.1-.1,1.1-.1,1.5.9l1.8,4.5c1.8,4.7,3.7,9.4,5.5,14.2.1.2.1.3.2.5.3.9.2,1-.8,1h-2a1.11,1.11,0,0,1-1.3-.8c-.3-.8-.5-1.6-.8-2.3-.5-1.2-.7-1.4-1.9-1.4h-6.1c-1,0-1.2.1-1.6,1.1a15.46,15.46,0,0,0-.7,2.3c-.3,1.1-.5,1.1-1.5,1.1h-2.2Zm8.7-15.7c-.9,2.3-1.7,4.5-2.6,6.8-.3.7-.1,1,.7,1a14.72,14.72,0,0,0,2.1,0h0a17.65,17.65,0,0,0,2.3,0c.8-.1,1-.4.7-1.1-.8-2.2-1.7-4.5-2.6-6.7-.1-.1-.2-.3-.3-.4A1.38,1.38,0,0,0,80.79,136.8Zm12.8,15.7c-.6,0-.8-.1-.8-.8v-1.3q.15-4.2.3-8.1c-.1-3-.2-5.9-.4-8.7-.1-1.7-.1-1.7,1.7-1.7h1.3c1,0,1.1.1,1.1,1.1,0,.6-.1,1.2-.1,1.9,0,1.4-.1,2.9-.1,4.3,0,.9.1,1.1,1,1.1h8.9c.9,0,1-.2,1-1.1,0-1.7-.1-3.5-.1-5.2v-.7c0-1.4,0-1.4,1.4-1.4h1.7c.8,0,.9.1.9.9v1a129.77,129.77,0,0,0,0,16.5v1.6a.54.54,0,0,1-.5.7H108c-.6,0-.7-.4-.7-.8,0-1.2.1-2.4.1-3.6s.1-2.3.1-3.5c0-.9-.2-1.2-1.2-1.2h-8.5c-1,0-1.2.2-1.2,1.3,0,1.9.1,3.9.2,5.8v1.2c.1.4-.2.7-.6.8h-2A1.27,1.27,0,0,0,93.59,152.5Z" fill="url(#linear-gradient-2)"/></svg>